<?xml version="1.0" standalone="no"?>
<!DOCTYPE svg PUBLIC "-//W3C//DTD SVG 20010904//EN"
 "http://www.w3.org/TR/2001/REC-SVG-20010904/DTD/svg10.dtd">
<svg version="1.0" xmlns="http://www.w3.org/2000/svg"
 width="192.000000pt" height="192.000000pt" viewBox="0 0 192.000000 192.000000"
 preserveAspectRatio="xMidYMid meet">

<g transform="translate(0.000000,192.000000) scale(0.100000,-0.100000)"
fill="#000000" stroke="none">
<path d="M0 960 l0 -960 960 0 960 0 0 960 0 960 -960 0 -960 0 0 -960z m1170
291 c0 -5 -21 -16 -47 -25 -130 -44 -149 -149 -39 -211 17 -10 17 -11 -1 -28
-18 -16 -21 -16 -64 12 -79 50 -88 121 -24 186 46 45 175 94 175 66z m163 0
c70 -27 91 -112 35 -142 -19 -10 -19 -10 -3 15 31 47 -7 102 -86 124 l-34 10
32 1 c17 1 43 -3 56 -8z m4 -157 c-3 -3 -12 -4 -19 -1 -8 3 -5 6 6 6 11 1 17
-2 13 -5z m-135 -135 c90 -46 116 -68 134 -116 16 -40 16 -46 0 -87 -35 -92
-168 -191 -294 -217 -71 -14 -214 -7 -264 15 -51 22 -108 74 -124 113 -8 18
-14 51 -14 73 0 42 36 140 51 140 17 0 18 -19 4 -54 -20 -47 -19 -130 2 -173
37 -80 178 -126 310 -103 160 27 275 126 277 237 1 58 -26 90 -113 136 -66 36
-71 40 -54 53 23 17 14 19 85 -17z m-446 -34 c-20 -19 -41 -35 -48 -35 -15 1
57 70 72 70 6 0 -5 -16 -24 -35z"/>
</g>
</svg>
